<?xml version="1.0" encoding="iso-8859-1"?>
<!-- Uploaded to: SVG Repo, www.svgrepo.com, Generator: SVG Repo Mixer Tools -->
<svg height="800px" width="800px" version="1.1" id="Layer_1" xmlns="http://www.w3.org/2000/svg" xmlns:xlink="http://www.w3.org/1999/xlink" 
	 viewBox="0 0 503.547 503.547" xml:space="preserve">
<g transform="translate(6 1)">
	<path style="fill:#50DD8E;" d="M134.8,259.21c0,0,34.133,17.067,34.133,59.733S134.8,378.677,134.8,378.677
		s-34.133-17.067-34.133-59.733S134.8,259.21,134.8,259.21z M237.2,378.677v20.48c0,0,0,20.48-13.653,34.133
		c-13.653,13.653-34.133,13.653-34.133,13.653h-20.48v-20.48c0,0,0-20.48,13.653-34.133s34.133-13.653,34.133-13.653H237.2z
		 M373.733,404.277v25.6h-25.6c0,0-25.6,0-42.667-17.067C288.4,395.744,288.4,370.144,288.4,370.144v-25.6H314
		c0,0,25.6,0,42.667,17.067C373.733,378.677,373.733,404.277,373.733,404.277z M82.747,427.317
		c11.093,18.773-4.267,35.84-4.267,35.84s-22.187,4.267-33.28-14.507s4.267-36.693,4.267-36.693S71.653,408.544,82.747,427.317z
		 M459.067,293.344v25.6c0,0,0,25.6-17.067,42.667c-17.067,17.067-42.667,17.067-42.667,17.067h-25.6v-25.6
		c0,0,0-25.6,17.067-42.667c17.067-17.067,42.667-17.067,42.667-17.067H459.067z"/>
	<path style="fill:#FF7474;" d="M476.133,20.277c24.747,24.747,22.187,50.347-2.56,75.093
		c-13.653,13.653-45.227,27.307-45.227,27.307s31.573,12.8,45.227,26.453c24.747,24.747,27.307,50.347,2.56,75.093
		s-50.347,22.187-75.093-2.56c-13.653-13.653-27.307-45.227-27.307-45.227s-13.653,31.573-27.307,45.227
		c-24.747,24.747-50.347,27.307-75.093,2.56c-24.747-24.747-22.187-50.347,2.56-75.093c13.653-13.653,45.227-27.307,45.227-27.307
		s-31.573-12.8-45.227-27.307c-24.747-24.747-27.307-50.347-2.56-75.093s50.347-22.187,75.093,2.56
		c13.653,13.653,27.307,45.227,27.307,45.227s12.8-31.573,27.307-45.227C425.787-1.91,451.387-4.47,476.133,20.277"/>
	<path style="fill:#FFE079;" d="M391.653,104.757c4.267,5.12,7.68,11.093,7.68,17.92c0,14.507-11.093,25.6-25.6,25.6
		c-14.507,0-25.6-11.093-25.6-25.6c0-6.827,2.56-13.653,7.68-17.92c4.267-4.267,11.093-7.68,17.92-7.68
		C380.56,97.077,387.387,99.637,391.653,104.757"/>
</g>
<path style="fill:#51565F;" d="M499.2,503.41H362.667c-2.56,0-4.267-1.707-4.267-4.267c0-2.56,1.707-4.267,4.267-4.267h12.8v-59.733
	h-21.333c-0.853,0-27.307,0-46.08-17.92c-18.773-17.92-17.92-44.373-17.92-46.08v-25.6c0-2.56,1.707-4.267,4.267-4.267H320
	c0.853,0,27.307,0,46.08,17.92c4.267,4.267,7.68,8.533,9.387,13.653v-18.773l0,0V234.61c0-2.56,1.707-4.267,4.267-4.267
	c2.56,0,4.267,1.707,4.267,4.267v87.04c2.56-4.267,5.973-9.387,9.387-13.653c17.92-17.92,44.373-17.92,46.08-17.92h25.6
	c2.56,0,4.267,1.707,4.267,4.267v25.6c0,0.853,0,27.307-17.92,46.08c-17.92,18.773-44.373,17.92-46.08,17.92H384v110.933h115.2
	c2.56,0,4.267,1.707,4.267,4.267C503.467,501.703,501.76,503.41,499.2,503.41z M298.667,349.81v21.333c0,0,0,23.893,16.213,39.253
	c15.36,15.36,39.253,16.213,39.253,16.213h21.333v-21.333c0,0,0-23.893-16.213-39.253C343.893,350.664,320,349.81,320,349.81
	H298.667z M384,375.41h21.333c0,0,23.893,0,39.253-16.213c15.36-15.36,16.213-39.253,16.213-39.253V298.61h-21.333
	c0,0-23.893,0-39.253,16.213C384.853,330.183,384,354.077,384,354.077V375.41z M328.533,503.41h-17.067
	c-2.56,0-4.267-1.707-4.267-4.267c0-2.56,1.707-4.267,4.267-4.267h17.067c2.56,0,4.267,1.707,4.267,4.267
	C332.8,501.703,331.093,503.41,328.533,503.41z M277.333,503.41H157.867c-2.56,0-4.267-1.707-4.267-4.267
	c0-2.56,1.707-4.267,4.267-4.267h12.8v-46.933c0-15.36-7.68-23.04-16.213-30.72c-8.533-8.533-17.067-17.067-17.92-34.987
	c-7.68-5.12-34.133-23.893-34.133-62.293c0-44.373,34.987-63.147,36.693-63.147c0.853-0.853,2.56-0.853,3.413,0
	c1.707,0.853,36.693,18.773,36.693,63.147c0,38.4-25.6,57.173-34.133,62.293c0.853,13.653,7.68,20.48,15.36,29.013
	c3.413,3.413,6.827,6.827,10.24,11.093c0.853-7.68,4.267-21.333,14.507-31.573c14.507-14.507,35.84-14.507,37.547-14.507h20.48
	c2.56,0,4.267,1.707,4.267,4.267v20.48c0,0.853,0,22.187-14.507,37.547c-14.507,14.507-35.84,14.507-37.547,14.507H179.2v42.667
	h98.133c2.56,0,4.267,1.707,4.267,4.267C281.6,502.556,279.893,503.41,277.333,503.41z M179.2,443.677h16.213
	c0,0,18.773,0,30.72-12.8c11.947-11.947,12.8-30.72,12.8-30.72v-16.213H222.72c0,0-18.773,0-30.72,12.8
	c-11.947,11.947-12.8,30.72-12.8,30.72V443.677z M140.8,265.33c-6.827,4.267-29.867,20.48-29.867,54.613s23.04,50.347,29.867,54.613
	c6.827-4.267,29.867-20.48,29.867-54.613S147.627,269.597,140.8,265.33z M123.733,503.41H4.267c-2.56,0-4.267-1.707-4.267-4.267
	v-0.853c0-0.853,0-0.853,0.853-1.707c0.853-0.853,11.093-17.067,4.267-38.4c-7.68-24.747,2.56-41.813,15.36-49.493
	c12.8-7.68,27.307-7.68,36.693,0.853C64,408.69,81.92,408.69,92.16,426.61c10.24,17.067,0.853,34.133-5.12,40.96
	c-0.853,0.853-1.707,0.853-2.56,1.707c-8.533,1.707-28.16,0.853-37.547-16.213c-9.387-16.213-1.707-30.72,2.56-37.547
	c-6.827-4.267-16.213-3.413-24.747,1.707c-5.12,2.56-19.627,14.507-11.947,39.253c5.12,17.067,1.707,31.573-1.707,39.253h112.64
	c2.56,0,4.267,1.707,4.267,4.267S126.293,503.41,123.733,503.41z M58.027,418.077c-2.56,4.267-11.093,17.067-3.413,29.867
	c7.68,13.653,23.04,12.8,27.307,12.8c2.56-3.413,11.093-16.213,2.56-29.867C76.8,417.224,62.293,417.224,58.027,418.077z
	 M446.293,247.41c-0.853,0-1.707,0-2.56,0c-13.653-0.853-27.307-7.68-40.107-21.333c-9.387-9.387-18.773-27.307-23.893-37.547
	c-5.12,10.24-14.507,28.16-23.893,37.547c-13.653,13.653-27.307,20.48-40.107,21.333c-14.507,0.853-28.16-5.12-40.96-18.773
	c-12.8-12.8-18.773-26.453-18.773-40.96c0.853-13.653,7.68-27.307,21.333-40.107c9.387-9.387,27.307-18.773,37.547-23.893
	c-10.24-5.12-28.16-14.507-37.547-23.893C263.68,86.13,256.853,72.477,256,59.677c-0.853-14.507,5.12-28.16,18.773-40.96
	c25.6-25.6,53.76-24.747,81.067,2.56c9.387,9.387,18.773,27.307,23.893,37.547c5.12-10.24,14.507-28.16,23.893-37.547
	c27.307-27.307,55.467-28.16,81.067-2.56c12.8,12.8,18.773,26.453,18.773,40.96c-0.853,13.653-7.68,27.307-21.333,40.107
	c-9.387,9.387-27.307,18.773-37.547,23.893c10.24,5.12,28.16,13.653,37.547,23.893c13.653,13.653,20.48,26.453,21.333,40.107
	c0.853,14.507-5.12,28.16-18.773,40.96C472.747,241.437,459.947,247.41,446.293,247.41z M379.733,174.023
	c1.707,0,3.413,0.853,4.267,2.56c0,0,12.8,30.72,26.453,43.52c11.947,11.947,23.893,17.92,34.987,18.773
	c11.947,0.853,23.04-5.12,34.133-16.213c11.093-11.093,16.213-23.04,16.213-34.133c-0.853-11.093-6.827-23.04-18.773-34.987
	c-12.8-12.8-43.52-25.6-43.52-25.6c-1.707-0.853-2.56-2.56-2.56-4.267s0.853-3.413,2.56-4.267c0,0,30.72-13.653,43.52-26.453
	c11.947-11.947,17.92-23.893,18.773-34.987c0.853-11.947-4.267-23.04-16.213-34.133c-22.187-22.187-45.227-21.333-69.12,2.56
	c-12.8,12.8-26.453,43.52-26.453,43.52c-1.707,3.413-6.827,3.413-7.68,0c0,0-12.8-30.72-26.453-43.52
	c-23.893-23.893-46.933-24.747-69.12-2.56c-11.093,11.093-16.213,23.04-16.213,34.133c0.853,11.093,6.827,23.04,18.773,34.987
	c12.8,12.8,43.52,25.6,43.52,26.453c1.707,0.853,2.56,2.56,2.56,4.267s-0.853,3.413-2.56,4.267c0,0-30.72,12.8-43.52,26.453
	c-11.947,11.947-17.92,23.893-18.773,34.987c-0.853,11.947,4.267,23.04,16.213,34.133c11.093,11.093,23.04,16.213,34.133,16.213
	c11.093-0.853,23.04-6.827,34.987-18.773c12.8-12.8,26.453-43.52,26.453-43.52C376.32,174.877,378.027,174.023,379.733,174.023z
	 M430.933,179.144c-0.853,0-2.56,0-3.413-0.853l-30.72-30.72c-5.12,3.413-11.093,5.973-17.92,5.973s-12.8-2.56-17.92-5.973
	l-30.72,30.72c-1.707,1.707-4.267,1.707-5.973,0c-0.853-0.853-0.853-1.707-0.853-3.413s0-2.56,0.853-3.413l30.72-30.72
	c-3.413-5.12-5.973-11.093-5.973-17.92c0-6.827,2.56-12.8,5.973-17.92L325.12,75.037c-0.853-0.853-0.853-1.707-0.853-3.413
	c0-1.707,0-2.56,0.853-3.413c1.707-1.707,4.267-1.707,5.973,0l29.867,29.867c5.12-3.413,11.093-5.973,17.92-5.973
	s12.8,2.56,17.92,5.973l29.867-29.867c1.707-1.707,4.267-1.707,5.973,0c0.853,0.853,0.853,1.707,0.853,3.413
	c0,1.707,0,2.56-0.853,3.413l-29.867,29.867c3.413,5.12,5.973,11.093,5.973,17.92c0,6.827-2.56,12.8-5.973,17.92l30.72,30.72
	c0.853,0.853,0.853,1.707,0.853,3.413s0,2.56-0.853,3.413C432.64,179.144,431.787,179.144,430.933,179.144z M364.373,109.17
	c-3.413,3.413-5.973,8.533-5.973,14.507c0,11.947,9.387,21.333,21.333,21.333c11.947,0,21.333-9.387,21.333-21.333
	c0-5.973-2.56-11.093-5.973-14.507c0,0,0,0-0.853,0c0,0,0,0,0-0.853c-3.413-3.413-9.387-5.973-14.507-5.973
	c-5.12,0-11.093,2.56-14.507,5.973C365.227,108.317,365.227,108.317,364.373,109.17L364.373,109.17z"/>
</svg>